<svg width="800" height="500" viewBox="0 0 800 500" fill="none" xmlns="http://www.w3.org/2000/svg">
  <rect width="800" height="500" rx="32" fill="url(#paint0_radial)"/>
  <g filter="url(#filter0_dd)">
    <rect x="60" y="90" width="680" height="320" rx="28" fill="#0F172A" fill-opacity="0.65"/>
    <rect x="60" y="90" width="680" height="60" rx="28" fill="#1E293B" fill-opacity="0.9"/>
    <rect x="94" y="113" width="120" height="16" rx="8" fill="#38BDF8" fill-opacity="0.7"/>
    <rect x="232" y="113" width="80" height="16" rx="8" fill="#93C5FD" fill-opacity="0.4"/>
    <rect x="330" y="113" width="66" height="16" rx="8" fill="#93C5FD" fill-opacity="0.4"/>
    <g opacity="0.95">
      <rect x="96" y="180" width="180" height="160" rx="20" fill="#1E293B" fill-opacity="0.9"/>
      <rect x="120" y="204" width="132" height="88" rx="16" fill="#38BDF8" fill-opacity="0.35"/>
      <rect x="120" y="304" width="90" height="12" rx="6" fill="#CBD5F5" fill-opacity="0.55"/>
      <rect x="120" y="324" width="120" height="12" rx="6" fill="#64748B" fill-opacity="0.55"/>
    </g>
    <g opacity="0.9">
      <rect x="320" y="180" width="180" height="160" rx="20" fill="#1E293B" fill-opacity="0.9"/>
      <rect x="344" y="204" width="132" height="88" rx="16" fill="#22D3EE" fill-opacity="0.35"/>
      <rect x="344" y="304" width="90" height="12" rx="6" fill="#E0F2FE" fill-opacity="0.55"/>
      <rect x="344" y="324" width="120" height="12" rx="6" fill="#64748B" fill-opacity="0.55"/>
    </g>
    <g opacity="0.8">
      <rect x="544" y="180" width="180" height="160" rx="20" fill="#1E293B" fill-opacity="0.9"/>
      <rect x="568" y="204" width="132" height="88" rx="16" fill="#38BDF8" fill-opacity="0.35"/>
      <rect x="568" y="304" width="90" height="12" rx="6" fill="#CBD5F5" fill-opacity="0.55"/>
      <rect x="568" y="324" width="120" height="12" rx="6" fill="#64748B" fill-opacity="0.55"/>
    </g>
    <rect x="96" y="360" width="556" height="20" rx="10" fill="#0EA5E9" fill-opacity="0.35"/>
  </g>
  <defs>
    <filter id="filter0_dd" x="40" y="70" width="720" height="360" filterUnits="userSpaceOnUse" color-interpolation-filters="sRGB">
      <feFlood flood-opacity="0" result="BackgroundImageFix"/>
      <feGaussianBlur in="BackgroundImageFix" stdDeviation="6"/>
      <feComposite in2="SourceAlpha" operator="in" result="effect1_backgroundBlur"/>
      <feOffset dy="8"/>
      <feGaussianBlur stdDeviation="18"/>
      <feComposite in2="hardAlpha" operator="out"/>
      <feColorMatrix type="matrix" values="0 0 0 0 0.027 0 0 0 0 0.063 0 0 0 0 0.137 0 0 0 0.18 0"/>
      <feBlend mode="normal" in2="BackgroundImageFix" result="effect1_dropShadow"/>
      <feBlend mode="normal" in="SourceGraphic" in2="effect1_dropShadow" result="shape"/>
    </filter>
    <radialGradient id="paint0_radial" cx="0" cy="0" r="1" gradientUnits="userSpaceOnUse" gradientTransform="translate(120 60) rotate(28) scale(760 520)">
      <stop stop-color="#0EA5E9" stop-opacity="0.35"/>
      <stop offset="0.45" stop-color="#0F172A"/>
      <stop offset="1" stop-color="#020617"/>
    </radialGradient>
  </defs>
</svg>
